<?xml version="1.0" encoding="UTF-8"?>
<svg width="96" height="96" viewBox="0 0 96 96" xmlns="http://www.w3.org/2000/svg" fill="none">
  <title>Freier Text</title>
  <ellipse cx="44" cy="88" rx="34" ry="5" fill="#000" opacity="0.25"/>
  <path d="M10 18 L60 10 Q64 10 64 14 L64 74 L68 80 L14 80 Q10 80 10 76 Z" fill="#8B5A00"/>
  <path d="M60 10 L68 16 L68 80 L64 76 L64 16 Z" fill="#6B4000" stroke="#1A1A2E" stroke-width="2"/>
  <rect x="14" y="14" width="48" height="62" rx="3" fill="#FFF8F0"/>
  <rect x="14" y="14" width="48" height="62" rx="3" fill="none" stroke="#1A1A2E" stroke-width="2.5"/>
  <path d="M18 18 Q38 14 58 18" stroke="#FFF" stroke-width="3" stroke-linecap="round" opacity="0.2"/>
  <rect x="20" y="22" width="24" height="5" rx="2.5" fill="#FF4D80" stroke="#1A1A2E" stroke-width="1.2"/>
  <rect x="20" y="34" width="36" height="3.5" rx="1.75" fill="#C8B8A8" stroke="#1A1A2E" stroke-width="0.8"/>
  <rect x="20" y="42" width="30" height="3.5" rx="1.75" fill="#C8B8A8" stroke="#1A1A2E" stroke-width="0.8"/>
  <rect x="20" y="50" width="36" height="3.5" rx="1.75" fill="#C8B8A8" stroke="#1A1A2E" stroke-width="0.8"/>
  <rect x="20" y="58" width="28" height="3.5" rx="1.75" fill="#C8B8A8" stroke="#1A1A2E" stroke-width="0.8"/>
  <rect x="20" y="66" width="34" height="3.5" rx="1.75" fill="#C8B8A8" stroke="#1A1A2E" stroke-width="0.8"/>
  <path d="M48 6 L60 6 L60 30 L54 24 L48 30 Z" fill="#FF4D80" stroke="#1A1A2E" stroke-width="2"/>
  <circle cx="52" cy="10" r="1.5" fill="#FFF" opacity="0.4"/>
</svg>
