<?xml version="1.0" encoding="UTF-8"?>
<svg width="96" height="96" viewBox="0 0 96 96" xmlns="http://www.w3.org/2000/svg" fill="none">
  <title>Mein Konto</title>
  <ellipse cx="48" cy="86" rx="38" ry="5" fill="#000" opacity="0.25"/>
  <rect x="4" y="24" width="88" height="56" rx="10" fill="#CC3068"/>
  <rect x="4" y="18" width="88" height="56" rx="10" fill="#FFF0F3"/>
  <rect x="4" y="18" width="88" height="56" rx="10" fill="none" stroke="#1A1A2E" stroke-width="2.5"/>
  <rect x="4" y="18" width="88" height="16" rx="10" fill="#FF4D80"/>
  <rect x="4" y="18" width="88" height="16" rx="10" fill="none" stroke="#1A1A2E" stroke-width="2.5"/>
  <path d="M12 24 Q48 20 84 24" stroke="#FF8FA8" stroke-width="3" stroke-linecap="round" opacity="0.3"/>
  <circle cx="12" cy="24" r="1.5" fill="#FFF" opacity="0.3"/>
  <rect x="10" y="40" width="32" height="30" rx="8" fill="#8B5A00"/>
  <rect x="10" y="38" width="32" height="30" rx="8" fill="#FFD166"/>
  <rect x="10" y="38" width="32" height="30" rx="8" fill="none" stroke="#1A1A2E" stroke-width="2"/>
  <circle cx="16" cy="42" r="1.5" fill="#FFF" opacity="0.3"/>
  <ellipse cx="26" cy="52" rx="12" ry="10" fill="#FFB3BA"/>
  <ellipse cx="26" cy="52" rx="12" ry="10" fill="none" stroke="#1A1A2E" stroke-width="1.5"/>
  <circle cx="21" cy="50" r="3" fill="#1A1A2E"/>
  <circle cx="31" cy="50" r="3" fill="#1A1A2E"/>
  <circle cx="20" cy="48" r="1.2" fill="#FFF" opacity="0.6"/>
  <circle cx="30" cy="48" r="1.2" fill="#FFF" opacity="0.6"/>
  <path d="M23 56 Q26 59 29 56" stroke="#1A1A2E" stroke-width="1.8" stroke-linecap="round" fill="none"/>
  <rect x="50" y="42" width="36" height="6" rx="3" fill="#1A1A2E"/>
  <rect x="50" y="54" width="30" height="4" rx="2" fill="#C8B8A8" stroke="#1A1A2E" stroke-width="0.8"/>
  <rect x="50" y="62" width="34" height="4" rx="2" fill="#C8B8A8" stroke="#1A1A2E" stroke-width="0.8"/>
</svg>
