<?xml version="1.0" encoding="UTF-8"?>
<svg width="96" height="96" viewBox="0 0 96 96" xmlns="http://www.w3.org/2000/svg" fill="none">
  <title>Vokabelliste</title>
  <ellipse cx="48" cy="88" rx="32" ry="5" fill="#000" opacity="0.25"/>
  <g transform="rotate(-5 36 44)">
    <rect x="10" y="18" width="48" height="60" rx="6" fill="#8B5A00"/>
    <rect x="10" y="12" width="48" height="60" rx="6" fill="#FFF0E0"/>
    <rect x="10" y="12" width="48" height="60" rx="6" fill="none" stroke="#1A1A2E" stroke-width="2.5"/>
  </g>
  <rect x="18" y="10" width="52" height="66" rx="6" fill="#CC3068"/>
  <rect x="18" y="4" width="52" height="66" rx="6" fill="#FFF8F0"/>
  <rect x="18" y="4" width="52" height="66" rx="6" fill="none" stroke="#1A1A2E" stroke-width="2.5"/>
  <path d="M24 10 Q44 6 64 10" stroke="#FFF" stroke-width="4" stroke-linecap="round" opacity="0.2"/>
  <circle cx="24" cy="10" r="1.5" fill="#FFF" opacity="0.3"/>
  <rect x="24" y="14" width="18" height="5" rx="2.5" fill="#FF4D80" stroke="#1A1A2E" stroke-width="1.2"/>
  <rect x="24" y="24" width="12" height="3.5" rx="1.75" fill="#CC8040" stroke="#1A1A2E" stroke-width="0.8"/>
  <rect x="44" y="24" width="16" height="3.5" rx="1.75" fill="#8899AA" stroke="#1A1A2E" stroke-width="0.8"/>
  <rect x="24" y="32" width="10" height="3.5" rx="1.75" fill="#CC8040" stroke="#1A1A2E" stroke-width="0.8"/>
  <rect x="44" y="32" width="18" height="3.5" rx="1.75" fill="#8899AA" stroke="#1A1A2E" stroke-width="0.8"/>
  <rect x="24" y="40" width="14" height="3.5" rx="1.75" fill="#CC8040" stroke="#1A1A2E" stroke-width="0.8"/>
  <rect x="44" y="40" width="14" height="3.5" rx="1.75" fill="#8899AA" stroke="#1A1A2E" stroke-width="0.8"/>
  <rect x="24" y="48" width="11" height="3.5" rx="1.75" fill="#CC8040" stroke="#1A1A2E" stroke-width="0.8"/>
  <rect x="44" y="48" width="16" height="3.5" rx="1.75" fill="#8899AA" stroke="#1A1A2E" stroke-width="0.8"/>
  <circle cx="72" cy="14" r="11" fill="#8B5A00"/>
  <circle cx="72" cy="12" r="11" fill="#FFD166"/>
  <circle cx="72" cy="12" r="11" fill="none" stroke="#1A1A2E" stroke-width="2.2"/>
  <path d="M68 12 L71 15 L76 9" stroke="#1A1A2E" stroke-width="2.2" stroke-linecap="round" stroke-linejoin="round" fill="none"/>
  <circle cx="68" cy="8" r="1.5" fill="#FFF" opacity="0.4"/>
</svg>
